<?xml version="1.0" standalone="no"?>
<!DOCTYPE svg PUBLIC "-//W3C//DTD SVG 20010904//EN"
 "http://www.w3.org/TR/2001/REC-SVG-20010904/DTD/svg10.dtd">
<svg version="1.0" xmlns="http://www.w3.org/2000/svg"
 width="512.000000pt" height="512.000000pt" viewBox="0 0 512.000000 512.000000"
 preserveAspectRatio="xMidYMid meet">
<metadata>
Created by potrace 1.11, written by Peter Selinger 2001-2013
</metadata>
<g transform="translate(0.000000,512.000000) scale(0.100000,-0.100000)"
fill="#000000" stroke="none">
<path d="M0 2560 l0 -2560 2560 0 2560 0 0 2560 0 2560 -2560 0 -2560 0 0
-2560z m1738 1454 c103 -21 180 -54 257 -108 105 -76 171 -171 217 -316 23
-74 23 -81 23 -525 0 -399 -2 -457 -18 -515 -31 -114 -74 -188 -156 -270 -153
-152 -296 -189 -728 -190 l-213 0 0 -505 0 -505 -155 0 -155 0 0 1475 0 1475
425 0 c350 0 439 -3 503 -16z m1322 -664 l0 -680 470 0 470 0 0 680 0 680 155
0 155 0 0 -1475 0 -1475 -155 0 -155 0 0 655 0 655 -470 0 -470 0 0 -655 0
-655 -160 0 -160 0 0 1475 0 1475 160 0 160 0 0 -680z"/>
<path d="M1128 3754 c-5 -4 -8 -317 -8 -697 l0 -689 258 4 c202 4 268 8 307
21 125 41 203 127 230 253 21 100 21 741 0 832 -32 136 -101 213 -227 255 -55
18 -94 21 -308 25 -135 2 -248 0 -252 -4z"/>
</g>
</svg>
